<svg xmlns="http://www.w3.org/2000/svg" version="1.1" xmlns:xlink="http://www.w3.org/1999/xlink" xmlns:svgjs="http://svgjs.dev/svgjs" viewBox="0 0 800 800"><defs><radialGradient id="ccclaymoji-grad-dark" r="93%" cx="20%" cy="20%">
      <stop offset="70%" stop-color="hsl(41, 100%, 67%)" stop-opacity="0"></stop>
      <stop offset="97%" stop-color="#c89924" stop-opacity="1"></stop>
    </radialGradient><radialGradient id="ccclaymoji-grad-light" r="65%" cx="28%" cy="20%">
    <stop offset="0%" stop-color="#fffd88" stop-opacity="0.75"></stop>
    <stop offset="100%" stop-color="hsl(41, 100%, 67%)" stop-opacity="0"></stop>
  </radialGradient><filter id="ccclaymoji-blur" x="-100%" y="-100%" width="400%" height="400%" filterUnits="objectBoundingBox" primitiveUnits="userSpaceOnUse" color-interpolation-filters="sRGB">
	<feGaussianBlur stdDeviation="30" x="0%" y="0%" width="100%" height="100%" in="SourceGraphic" edgeMode="none" result="blur"></feGaussianBlur></filter><filter id="inner-blur" x="-100%" y="-100%" width="400%" height="400%" filterUnits="objectBoundingBox" primitiveUnits="userSpaceOnUse" color-interpolation-filters="sRGB">
	<feGaussianBlur stdDeviation="2" x="0%" y="0%" width="100%" height="100%" in="SourceGraphic" edgeMode="none" result="blur"></feGaussianBlur></filter><filter id="eye-shadow" x="-100%" y="-100%" width="400%" height="400%" filterUnits="objectBoundingBox" primitiveUnits="userSpaceOnUse" color-interpolation-filters="sRGB">
	<feDropShadow stdDeviation="10" dx="10" dy="10" flood-color="#000000" flood-opacity="0.2" x="0%" y="0%" width="100%" height="100%" result="dropShadow"></feDropShadow>
</filter><linearGradient id="eye-light" x1="50%" y1="0%" x2="50%" y2="100%">
      <stop offset="0%" stop-color="#555555" stop-opacity="1"></stop>
      <stop offset="100%" stop-color="black" stop-opacity="0"></stop>
    </linearGradient><linearGradient id="mouth-light" x1="50%" y1="0%" x2="50%" y2="100%">
    <stop offset="0%" stop-color="#ff9667" stop-opacity="1"></stop>
    <stop offset="100%" stop-color="hsl(3, 100%, 51%)" stop-opacity="0"></stop>
  </linearGradient><filter id="mouth-shadow" x="-100%" y="-100%" width="400%" height="400%" filterUnits="objectBoundingBox" primitiveUnits="userSpaceOnUse" color-interpolation-filters="sRGB">
	<feDropShadow stdDeviation="10" dx="10" dy="10" flood-color="#c20000" flood-opacity="0.2" x="0%" y="0%" width="100%" height="100%" result="dropShadow"></feDropShadow>
</filter></defs><g stroke-linecap="round"><path d="M619 449.9999976556578C619 583.9913992729084 533.9914016172506 692.6118574939328 400 692.6118574939328C266.0091886792453 692.6118574939328 181 583.9913992729084 181 449.9999976556578C181 316.009186334903 266.0091886792453 207.3881378173828 400 207.3881378173828C533.9914016172506 207.3881378173828 619 316.009186334903 619 449.9999976556578Z " fill="#c89924" opacity="0.25" filter="url(#ccclaymoji-blur)"></path><path d="M619 400.0000044098291C619 527.137625893205 527.1376214833759 630.2020504456348 400 630.2020504456348C272.8629386189258 630.2020504456348 181 527.137625893205 181 400.0000044098291C181 272.8629430287549 272.8629386189258 169.79795837402344 400 169.79795837402344C527.1376214833759 169.79795837402344 619 272.8629430287549 619 400.0000044098291Z " fill="hsl(41, 100%, 67%)"></path><path d="M619 400.0000044098291C619 527.137625893205 527.1376214833759 630.2020504456348 400 630.2020504456348C272.8629386189258 630.2020504456348 181 527.137625893205 181 400.0000044098291C181 272.8629430287549 272.8629386189258 169.79795837402344 400 169.79795837402344C527.1376214833759 169.79795837402344 619 272.8629430287549 619 400.0000044098291Z " fill="url(#ccclaymoji-grad-dark)"></path><path d="M619 400.0000044098291C619 527.137625893205 527.1376214833759 630.2020504456348 400 630.2020504456348C272.8629386189258 630.2020504456348 181 527.137625893205 181 400.0000044098291C181 272.8629430287549 272.8629386189258 169.79795837402344 400 169.79795837402344C527.1376214833759 169.79795837402344 619 272.8629430287549 619 400.0000044098291Z " fill="url(#ccclaymoji-grad-light)"></path><path d="M322 385.25Q372 344.25 378 385.25 " stroke-width="23" stroke="black" fill="none" filter="url(#eye-shadow)"></path><path d="M322 385.25Q372 344.25 378 385.25 " stroke-width="7.666666666666667" stroke="url(#eye-light)" fill="none" filter="url(#inner-blur)"></path><path d="M425 387.5Q475 337.5 475 387.5 " stroke-width="23" stroke="black" fill="none" filter="url(#eye-shadow)"></path><path d="M425 387.5Q475 337.5 475 387.5 " stroke-width="7.666666666666667" stroke="url(#eye-light)" fill="none" filter="url(#inner-blur)"></path><path d="M353 515.75Q375 552.75 453 515.75 " stroke-width="23" stroke="hsl(3, 100%, 51%)" fill="none" filter="url(#mouth-shadow)"></path><path d="M353 515.75Q375 552.75 453 515.75 " stroke-width="7.666666666666667" stroke="url(#mouth-light)" fill="none" filter="url(#inner-blur)"></path></g></svg>
